<?xml version="1.0" encoding="UTF-8" standalone="no"?>
<svg
   xmlns:dc="http://purl.org/dc/elements/1.1/"
   xmlns:cc="http://creativecommons.org/ns#"
   xmlns:rdf="http://www.w3.org/1999/02/22-rdf-syntax-ns#"
   xmlns:svg="http://www.w3.org/2000/svg"
   xmlns="http://www.w3.org/2000/svg"
   xmlns:sodipodi="http://sodipodi.sourceforge.net/DTD/sodipodi-0.dtd"
   xmlns:inkscape="http://www.inkscape.org/namespaces/inkscape"
   inkscape:version="1.0 (4035a4fb49, 2020-05-01)"
   sodipodi:docname="GitHub-Mark.svg"
   viewBox="0 0 31.999559 31.999738"
   height="31.999739"
   width="31.999559"
   xml:space="preserve"
   id="svg10"
   version="1.1"><metadata
     id="metadata16"><rdf:RDF><cc:Work
         rdf:about=""><dc:format>image/svg+xml</dc:format><dc:type
           rdf:resource="http://purl.org/dc/dcmitype/StillImage" /><dc:title></dc:title></cc:Work></rdf:RDF></metadata><defs
     id="defs14"><clipPath
       id="clipPath28"
       clipPathUnits="userSpaceOnUse"><path
         id="path26"
         d="M 0,551.986 H 530.973 V 0 H 0 Z" /></clipPath><clipPath
       id="clipPath26"
       clipPathUnits="userSpaceOnUse"><path
         id="path24"
         d="M 0,24 H 24 V 0 H 0 Z" /></clipPath><clipPath
       id="clipPath34"
       clipPathUnits="userSpaceOnUse"><path
         id="path32-5"
         d="M 2.00005,22 H 22 V 2.00005 H 2.00005 Z" /></clipPath><clipPath
       id="clipPath50"
       clipPathUnits="userSpaceOnUse"><path
         id="path48"
         d="M 3,21 H 21 V 3 H 3 Z" /></clipPath><clipPath
       id="clipPath66"
       clipPathUnits="userSpaceOnUse"><path
         id="path64"
         d="M 4,22 H 20 V 2 H 4 Z" /></clipPath><clipPath
       id="clipPath82"
       clipPathUnits="userSpaceOnUse"><path
         id="path80"
         d="M 2,20 H 22 V 4 H 2 Z" /></clipPath><clipPath
       id="clipPath98"
       clipPathUnits="userSpaceOnUse"><path
         id="path96"
         d="M 0,24 H 24 V 0 H 0 Z" /></clipPath><clipPath
       id="clipPath108"
       clipPathUnits="userSpaceOnUse"><path
         id="path106"
         d="M 0,48 H 48 V 0 H 0 Z" /></clipPath><clipPath
       id="clipPath116"
       clipPathUnits="userSpaceOnUse"><path
         id="path114"
         d="M 0,24 H 24 V 0 H 0 Z" /></clipPath><clipPath
       id="clipPath124"
       clipPathUnits="userSpaceOnUse"><path
         id="path122"
         d="M -2.13623e-4,24.0002 H 23.9997 V 2.74658e-4 H -2.13623e-4 Z" /></clipPath><clipPath
       id="clipPath128"
       clipPathUnits="userSpaceOnUse"><path
         id="path126"
         d="M -2.13623e-4,47.9998 H 47.9998 V -1.52588e-4 H -2.13623e-4 Z" /></clipPath><clipPath
       id="clipPath132"
       clipPathUnits="userSpaceOnUse"><path
         id="path130"
         d="M 48,48 H 0 V 0 h 48 z" /></clipPath><clipPath
       id="clipPath340"
       clipPathUnits="userSpaceOnUse"><path
         id="path338"
         d="M 0,24 H 24 V 0 H 0 Z" /></clipPath><clipPath
       id="clipPath350"
       clipPathUnits="userSpaceOnUse"><path
         id="path348"
         d="M -2.28882e-4,48.0001 H 47.9998 V 1.2207e-4 H -2.28882e-4 Z" /></clipPath><clipPath
       id="clipPath358"
       clipPathUnits="userSpaceOnUse"><path
         id="path356"
         d="M -2.28882e-4,48.0001 H 47.9998 V 1.2207e-4 H -2.28882e-4 Z" /></clipPath><clipPath
       id="clipPath362"
       clipPathUnits="userSpaceOnUse"><path
         id="path360"
         d="M 0,0 H 48 V 48 H 0 Z" /></clipPath></defs><sodipodi:namedview
     inkscape:current-layer="layer2"
     inkscape:window-maximized="1"
     inkscape:window-y="570"
     inkscape:window-x="1072"
     inkscape:cy="12.511156"
     inkscape:cx="23.60876"
     inkscape:zoom="21.030505"
     showgrid="false"
     id="namedview12"
     inkscape:window-height="1017"
     inkscape:window-width="1920"
     inkscape:pageshadow="2"
     inkscape:pageopacity="0"
     guidetolerance="10"
     gridtolerance="10"
     objecttolerance="10"
     borderopacity="1"
     bordercolor="#666666"
     pagecolor="#ffffff"><sodipodi:guide
       id="guide1028"
       orientation="0,31.999559"
       position="0,31.999738" /><sodipodi:guide
       id="guide1030"
       orientation="31.999739,0"
       position="31.999559,31.999738" /><sodipodi:guide
       id="guide1032"
       orientation="0,-31.999559"
       position="31.999559,0" /><sodipodi:guide
       id="guide1034"
       orientation="-31.999739,0"
       position="0,0" /></sodipodi:namedview><g
     style="display:inline"
     transform="matrix(1.3333333,0,0,-1.3333333,-205.88506,588.44469)"
     inkscape:label="Layer 1"
     id="layer2"
     inkscape:groupmode="layer"><g
       style="fill:#ffffff"
       clip-path="url(#clipPath28)"
       id="g24"><path
         d="m 166.41265,438.90792 c -5.42068,0 -9.8157,-4.395 -9.8157,-9.81689 0,-4.33716 2.8125,-8.01623 6.71333,-9.31491 0.49116,-0.0899 0.67013,0.21333 0.67013,0.47367 0,0.23263 -0.008,0.85031 -0.0133,1.6693 -2.73052,-0.59299 -3.30666,1.31615 -3.30666,1.31615 -0.44655,1.13355 -1.09015,1.43547 -1.09015,1.43547 -0.89131,0.60926 0.0676,0.59721 0.0676,0.59721 0.9853,-0.0698 1.50357,-1.01181 1.50357,-1.01181 0.87562,-1.49997 2.29784,-1.06667 2.85709,-0.81597 0.0892,0.63456 0.34228,1.06726 0.62312,1.31252 -2.17973,0.2477 -4.47155,1.09018 -4.47155,4.85182 0,1.07148 0.38268,1.94769 1.01063,2.6341 -0.10125,0.24828 -0.43812,1.24624 0.0958,2.59794 0,0 0.82441,0.26396 2.6998,-1.00639 0.78282,0.21756 1.62289,0.32663 2.45753,0.33024 0.83344,-0.004 1.67351,-0.11268 2.45754,-0.33024 1.87419,1.27035 2.69679,1.00639 2.69679,1.00639 0.53573,-1.3517 0.19886,-2.34966 0.0977,-2.59794 0.62914,-0.68641 1.00941,-1.56262 1.00941,-2.6341 0,-3.77129 -2.29544,-4.60112 -4.48239,-4.84398 0.35254,-0.30311 0.66651,-0.90214 0.66651,-1.81814 0,-1.31193 -0.012,-2.37077 -0.012,-2.69257 0,-0.26274 0.17658,-0.56828 0.67495,-0.47246 3.89784,1.30109 6.70792,4.97775 6.70792,9.3137 0,5.42189 -4.39561,9.81689 -9.8175,9.81689"
         style="fill:#ffffff;fill-opacity:1;fill-rule:evenodd;stroke:none;stroke-width:0.602633"
         id="path32" /></g></g></svg>
